<svg xmlns="http://www.w3.org/2000/svg" viewBox="0 0 72 61"><defs><style>.cls-1{fill:#010101;}</style></defs><title>delivery_icon_19_07</title><g id="Слой_2" data-name="Слой 2"><g id="Слой_1-2" data-name="Слой 1"><path class="cls-1" d="M10.22,23.92H24.31a4.5,4.5,0,0,0,4.53-4.45V8.1a4.5,4.5,0,0,0-4.53-4.45h-7V19.09a.75.75,0,0,1-.76.75H13.91a.75.75,0,0,1-.77-.75V3.65H10.22A4.51,4.51,0,0,0,5.68,8.1V19.47A4.51,4.51,0,0,0,10.22,23.92Z"/><path class="cls-1" d="M72,45.48s0-11.8-10.27-11.8c0-11.69-8.3-26.06-8.3-26.06h3.16V0H49a2.39,2.39,0,0,0-2.3,2.68H38.9c-1.7,0-2.9.86-2.9,2.15s-.2,2.68,1.58,2.68H47s8.3,19.79.77,26.17c-5.69,3.11-18.91,1.39-18.91,1.39V28.82a1.16,1.16,0,0,0-1.17-1.15H7.43C3.61,27.67,0,32.81,0,39.14a45.43,45.43,0,0,1,12.22,2.24A9.88,9.88,0,0,0,14.09,61a10,10,0,0,0,10.08-9.9,9.7,9.7,0,0,0-.41-2.76,5.3,5.3,0,0,0,3.45,1.27H46.06a5.32,5.32,0,0,0,3.41-1.24,9.49,9.49,0,0,0-.4,2.73,10.08,10.08,0,0,0,20.16,0,9.69,9.69,0,0,0-1.79-5.62ZM14.09,56.71A5.61,5.61,0,1,1,19.8,51.1,5.66,5.66,0,0,1,14.09,56.71Zm45.06,0a5.61,5.61,0,1,1,5.72-5.61A5.66,5.66,0,0,1,59.15,56.71Z"/></g></g></svg>